<svg width="16" height="16" viewBox="0 0 16 16" fill="none" xmlns="http://www.w3.org/2000/svg">
<g clip-path="url(#clip0_9570_22072)">
<path fill-rule="evenodd" clip-rule="evenodd" d="M9.96011 0.515721C9.96011 0.515721 10.5175 2.13285 10.5175 2.13209C10.9808 2.33066 11.4187 2.58373 11.8221 2.88594L13.5017 2.55999C13.6967 2.52205 13.8976 2.59124 14.0286 2.74084C14.7097 3.52209 15.2326 4.42816 15.5683 5.40873C15.6 5.50123 15.6069 5.60045 15.5882 5.69644C15.5695 5.79243 15.526 5.88183 15.4619 5.95569C15.4619 5.95569 14.3404 7.24684 14.3404 7.24611C14.3999 7.74667 14.3999 8.25252 14.3404 8.75307L15.4619 10.0442C15.526 10.1181 15.5695 10.2075 15.5882 10.3035C15.6069 10.3995 15.6 10.4987 15.5683 10.5912C15.2326 11.5718 14.7097 12.4778 14.0286 13.2591C13.8976 13.4087 13.6967 13.4779 13.5017 13.4399C13.5017 13.4399 11.8221 13.114 11.8228 13.114C11.4191 13.4159 10.9809 13.6688 10.5175 13.8671L9.96011 15.4842C9.9283 15.5766 9.87279 15.6591 9.79914 15.7233C9.72549 15.7876 9.63627 15.8314 9.54039 15.8503C8.5231 16.0498 7.47676 16.0498 6.45946 15.8503C6.36359 15.8314 6.27437 15.7876 6.20072 15.7233C6.12707 15.6591 6.07156 15.5766 6.03974 15.4842C6.03974 15.4842 5.48236 13.8671 5.48236 13.8678C5.01909 13.6693 4.58115 13.4162 4.17779 13.1139L2.49817 13.44C2.3032 13.478 2.10227 13.4087 1.97129 13.2591C1.2902 12.4779 0.767277 11.5718 0.431556 10.5912C0.399834 10.4987 0.392967 10.3995 0.411641 10.3035C0.430314 10.2075 0.473874 10.1181 0.53796 10.0443C0.53796 10.0443 1.65946 8.7531 1.65946 8.75383C1.59993 8.25327 1.59993 7.74741 1.65946 7.24684L0.537989 5.95569C0.473906 5.88183 0.430346 5.79243 0.411668 5.69644C0.392989 5.60045 0.399847 5.50124 0.431556 5.40873C0.767285 4.42815 1.29019 3.52208 1.97126 2.74081C2.10224 2.59121 2.30317 2.52202 2.49815 2.55999C2.49815 2.55999 4.17776 2.88594 4.17703 2.88594C4.5807 2.58399 5.01888 2.33117 5.48233 2.13282L6.03971 0.515721C6.07153 0.423309 6.12704 0.340861 6.20069 0.276612C6.27434 0.212363 6.36356 0.168561 6.45943 0.149581C7.47673 -0.0498605 8.52307 -0.0498605 9.54036 0.149581C9.63625 0.168551 9.72547 0.212349 9.79913 0.276599C9.87279 0.340849 9.9283 0.423302 9.96011 0.515721ZM7.99993 4.70995C6.18411 4.70995 4.70987 6.18417 4.70987 8.00002C4.70987 9.81586 6.18408 11.29 7.99993 11.29C9.81577 11.29 11.29 9.8158 11.29 7.99999C11.29 6.18417 9.81574 4.70995 7.99993 4.70995ZM7.99993 5.82623C9.19956 5.82623 10.1737 6.80039 10.1737 7.99999C10.1737 9.19958 9.19956 10.1737 7.99993 10.1737C6.8003 10.1737 5.82617 9.19961 5.82617 7.99999C5.82617 6.80036 6.8003 5.82623 7.99993 5.82623Z" fill="#617CF4"/>
</g>
<defs>
<clipPath id="clip0_9570_22072">
<rect width="16" height="16" fill="white"/>
</clipPath>
</defs>
</svg>
