<svg width="16" height="16" viewBox="0 0 16 16" fill="none" xmlns="http://www.w3.org/2000/svg">
<path d="M2.99972 14.0005C2.99972 14.1331 3.05239 14.2602 3.14616 14.354C3.23993 14.4478 3.36711 14.5005 3.49972 14.5005H12.4997C12.6323 14.5005 12.7595 14.4478 12.8533 14.354C12.947 14.2602 12.9997 14.1331 12.9997 14.0005V12.5005H2.99972V14.0005ZM14.3032 4.10296C14.2288 4.04636 14.14 4.01168 14.0468 4.00285C13.9537 3.99401 13.86 4.01137 13.7762 4.05296L10.2622 5.80996L8.46422 1.31496C8.42719 1.22201 8.36313 1.14231 8.28032 1.08616C8.19751 1.03002 8.09977 1 7.99972 1C7.89967 1 7.80192 1.03002 7.71911 1.08616C7.6363 1.14231 7.57224 1.22201 7.53522 1.31496L5.73722 5.80996L2.22322 4.05296C2.13949 4.01119 2.04572 3.99375 1.95258 4.00262C1.85943 4.0115 1.77065 4.04633 1.69632 4.10316C1.62198 4.15999 1.56509 4.23653 1.5321 4.32409C1.49912 4.41165 1.49136 4.50671 1.50972 4.59846L2.88972 11.5005H13.1097L14.4897 4.59846C14.508 4.50677 14.5003 4.41178 14.4673 4.32428C14.4343 4.23678 14.3775 4.16028 14.3032 4.10346V4.10296ZM7.99972 9.50046C7.70288 9.4638 7.43213 9.31255 7.24529 9.079C7.05845 8.84545 6.97032 8.5481 6.99972 8.25046C6.97032 7.95282 7.05845 7.65547 7.24529 7.42192C7.43213 7.18837 7.70288 7.03712 7.99972 7.00046C8.29655 7.03712 8.5673 7.18837 8.75414 7.42192C8.94098 7.65547 9.02911 7.95282 8.99972 8.25046C9.02911 8.5481 8.94098 8.84545 8.75414 9.079C8.5673 9.31255 8.29655 9.4638 7.99972 9.50046Z" fill="#617CF4"/>
</svg>
