<svg width="20" height="20" viewBox="0 0 20 20" fill="none" xmlns="http://www.w3.org/2000/svg">
<mask id="mask0_9316_20068" style="mask-type:luminance" maskUnits="userSpaceOnUse" x="0" y="0" width="20" height="20">
<path d="M19.6172 0H0.078125V19.5391H19.6172V0Z" fill="white"/>
</mask>
<g mask="url(#mask0_9316_20068)">
<path d="M9.85505 1.63672C10.4883 1.63676 11.0998 1.86742 11.5753 2.28558L11.7007 2.40363L12.2689 2.97189C12.4249 3.12683 12.6286 3.22464 12.847 3.24951L12.9569 3.25602H13.771C14.4363 3.25598 15.0765 3.51049 15.5602 3.96736C16.0438 4.42422 16.3344 5.04882 16.3722 5.71306L16.3762 5.86124V6.67538C16.3762 6.89518 16.4511 7.10929 16.5863 7.28028L16.6596 7.36166L17.227 7.92993C17.6974 8.3976 17.9716 9.02707 17.9938 9.69C18.0161 10.3529 17.7846 10.9993 17.3467 11.4975L17.2287 11.6228L16.6604 12.1911C16.5054 12.347 16.4076 12.5507 16.3827 12.7691L16.3762 12.879V13.6931C16.3763 14.3585 16.1218 14.9986 15.6649 15.4822C15.208 15.9659 14.5835 16.2564 13.9192 16.2943L13.771 16.2984H12.9569C12.7374 16.2984 12.5243 16.3724 12.352 16.5084L12.2706 16.5817L11.7023 17.1491C11.2346 17.6195 10.6052 17.8937 9.9423 17.916C9.27937 17.9382 8.63295 17.7068 8.13484 17.2688L8.00942 17.1507L7.4412 16.5825C7.2852 16.4276 7.08159 16.3297 6.86316 16.3049L6.75324 16.2984H5.9391C5.27377 16.2984 4.63366 16.0439 4.15 15.587C3.66634 15.1302 3.37581 14.5056 3.33796 13.8413L3.33389 13.6931V12.879C3.33382 12.6595 3.25983 12.4464 3.12385 12.2741L3.05058 12.1927L2.48313 11.6245C2.01279 11.1568 1.73855 10.5273 1.71631 9.86439C1.69407 9.20152 1.92551 8.55509 2.36345 8.05693L2.4815 7.93157L3.04976 7.3633C3.2047 7.20735 3.30251 7.00369 3.32738 6.78526L3.33389 6.67538V5.86124L3.33796 5.71306C3.37432 5.07431 3.64442 4.47131 4.0968 4.01893C4.54918 3.56655 5.15222 3.29644 5.79092 3.26009L5.9391 3.25602H6.75324C6.97276 3.25595 7.18583 3.18196 7.35813 3.04597L7.43956 2.9727L8.00783 2.40526C8.24989 2.16174 8.53771 1.96848 8.85474 1.83659C9.17173 1.70469 9.51171 1.63677 9.85505 1.63672ZM12.8649 7.56519C12.7122 7.4126 12.5052 7.32685 12.2893 7.32685C12.0734 7.32685 11.8664 7.4126 11.7137 7.56519L9.03282 10.2453L7.98011 9.19347L7.90359 9.12591C7.73996 8.99936 7.5343 8.93988 7.32842 8.95951C7.12248 8.97909 6.93177 9.07638 6.79495 9.23151C6.65818 9.38664 6.58552 9.58803 6.59184 9.79478C6.59815 10.0015 6.68295 10.1981 6.82894 10.3446L8.45723 11.9729L8.53375 12.0405C8.69038 12.162 8.88596 12.2222 9.08385 12.2097C9.28169 12.1973 9.46822 12.1131 9.6084 11.9729L12.8649 8.7164L12.9325 8.63984C13.054 8.48321 13.1142 8.28763 13.1017 8.08974C13.0893 7.8919 13.0051 7.70541 12.8649 7.56519Z" fill="#3A80F7"/>
</g>
</svg>
